G04 (created by PCBNEW-RS274X (2011-05-25)-stable) date Чт. 09 авг. 2012 02:33:36*
G01*
G70*
G90*
%MOIN*%
G04 Gerber Fmt 3.4, Leading zero omitted, Abs format*
%FSLAX34Y34*%
G04 APERTURE LIST*
%ADD10C,0.006000*%
%ADD11C,0.008000*%
%ADD12C,0.002600*%
%ADD13C,0.002000*%
%ADD14C,0.004000*%
%ADD15C,0.015000*%
%ADD16C,0.005000*%
%ADD17C,0.003500*%
%ADD18C,0.012000*%
G04 APERTURE END LIST*
G54D10*
G54D11*
X53009Y-27540D02*
X53009Y-26340D01*
X53009Y-26340D02*
X55809Y-26340D01*
X55809Y-26340D02*
X55809Y-27540D01*
X53009Y-28740D02*
X53009Y-29040D01*
X53009Y-29040D02*
X53609Y-29940D01*
X53609Y-29940D02*
X55209Y-29940D01*
X55209Y-29940D02*
X55809Y-29040D01*
X55809Y-29040D02*
X55809Y-28740D01*
G54D12*
X48374Y-24240D02*
X48604Y-24240D01*
X48604Y-24240D02*
X48604Y-24480D01*
X48374Y-24480D02*
X48604Y-24480D01*
X48374Y-24240D02*
X48374Y-24480D01*
X49684Y-24240D02*
X49914Y-24240D01*
X49914Y-24240D02*
X49914Y-24480D01*
X49684Y-24480D02*
X49914Y-24480D01*
X49684Y-24240D02*
X49684Y-24480D01*
X48987Y-24085D02*
X49301Y-24085D01*
X49301Y-24085D02*
X49301Y-24635D01*
X48987Y-24635D02*
X49301Y-24635D01*
X48987Y-24085D02*
X48987Y-24635D01*
G54D13*
X47974Y-24747D02*
X50314Y-24747D01*
X50314Y-23973D02*
X47974Y-23973D01*
X47974Y-23973D02*
X47974Y-24747D01*
X50314Y-24747D02*
X50314Y-23973D01*
G54D14*
X48624Y-24669D02*
X49664Y-24669D01*
X48624Y-24051D02*
X49664Y-24051D01*
X48624Y-24051D02*
X48624Y-24669D01*
X49664Y-24051D02*
X49664Y-24669D01*
G54D11*
X48751Y-24360D02*
X49144Y-24556D01*
X49144Y-24556D02*
X49144Y-24164D01*
X49144Y-24164D02*
X48751Y-24360D01*
X48751Y-24556D02*
X48751Y-24360D01*
X48751Y-24360D02*
X48751Y-24164D01*
G54D12*
X51449Y-21986D02*
X51449Y-22216D01*
X51449Y-22216D02*
X51209Y-22216D01*
X51209Y-21986D02*
X51209Y-22216D01*
X51449Y-21986D02*
X51209Y-21986D01*
X51449Y-23296D02*
X51449Y-23526D01*
X51449Y-23526D02*
X51209Y-23526D01*
X51209Y-23296D02*
X51209Y-23526D01*
X51449Y-23296D02*
X51209Y-23296D01*
X51604Y-22599D02*
X51604Y-22913D01*
X51604Y-22913D02*
X51054Y-22913D01*
X51054Y-22599D02*
X51054Y-22913D01*
X51604Y-22599D02*
X51054Y-22599D01*
G54D13*
X50942Y-21586D02*
X50942Y-23926D01*
X51716Y-23926D02*
X51716Y-21586D01*
X51716Y-21586D02*
X50942Y-21586D01*
X50942Y-23926D02*
X51716Y-23926D01*
G54D14*
X51020Y-22236D02*
X51020Y-23276D01*
X51638Y-22236D02*
X51638Y-23276D01*
X51638Y-22236D02*
X51020Y-22236D01*
X51638Y-23276D02*
X51020Y-23276D01*
G54D11*
X51329Y-22363D02*
X51133Y-22756D01*
X51133Y-22756D02*
X51525Y-22756D01*
X51525Y-22756D02*
X51329Y-22363D01*
X51133Y-22363D02*
X51329Y-22363D01*
X51329Y-22363D02*
X51525Y-22363D01*
G54D15*
X57281Y-24376D02*
X57281Y-26076D01*
X57281Y-26076D02*
X54411Y-26076D01*
X54411Y-26076D02*
X54411Y-24376D01*
X54411Y-24376D02*
X57281Y-24376D01*
X51173Y-26076D02*
X51173Y-24376D01*
X51173Y-24376D02*
X54043Y-24376D01*
X54043Y-24376D02*
X54043Y-26076D01*
X54043Y-26076D02*
X51173Y-26076D01*
G54D16*
X57658Y-22889D02*
X57657Y-22898D01*
X57654Y-22908D01*
X57649Y-22916D01*
X57643Y-22924D01*
X57635Y-22930D01*
X57627Y-22935D01*
X57618Y-22937D01*
X57608Y-22938D01*
X57599Y-22938D01*
X57590Y-22935D01*
X57581Y-22930D01*
X57574Y-22924D01*
X57567Y-22917D01*
X57563Y-22908D01*
X57560Y-22899D01*
X57559Y-22889D01*
X57559Y-22880D01*
X57562Y-22871D01*
X57566Y-22862D01*
X57573Y-22855D01*
X57580Y-22848D01*
X57588Y-22844D01*
X57598Y-22841D01*
X57607Y-22840D01*
X57616Y-22840D01*
X57626Y-22843D01*
X57634Y-22847D01*
X57642Y-22853D01*
X57648Y-22861D01*
X57653Y-22869D01*
X57656Y-22878D01*
X57657Y-22888D01*
X57658Y-22889D01*
X58058Y-22889D02*
X57658Y-22889D01*
X57658Y-22889D02*
X57658Y-23489D01*
X57658Y-23489D02*
X58058Y-23489D01*
X58458Y-23489D02*
X58858Y-23489D01*
X58858Y-23489D02*
X58858Y-22889D01*
X58858Y-22889D02*
X58458Y-22889D01*
X48406Y-23204D02*
X48405Y-23213D01*
X48402Y-23223D01*
X48397Y-23231D01*
X48391Y-23239D01*
X48383Y-23245D01*
X48375Y-23250D01*
X48366Y-23252D01*
X48356Y-23253D01*
X48347Y-23253D01*
X48338Y-23250D01*
X48329Y-23245D01*
X48322Y-23239D01*
X48315Y-23232D01*
X48311Y-23223D01*
X48308Y-23214D01*
X48307Y-23204D01*
X48307Y-23195D01*
X48310Y-23186D01*
X48314Y-23177D01*
X48321Y-23170D01*
X48328Y-23163D01*
X48336Y-23159D01*
X48346Y-23156D01*
X48355Y-23155D01*
X48364Y-23155D01*
X48374Y-23158D01*
X48382Y-23162D01*
X48390Y-23168D01*
X48396Y-23176D01*
X48401Y-23184D01*
X48404Y-23193D01*
X48405Y-23203D01*
X48406Y-23204D01*
X48806Y-23204D02*
X48406Y-23204D01*
X48406Y-23204D02*
X48406Y-23804D01*
X48406Y-23804D02*
X48806Y-23804D01*
X49206Y-23804D02*
X49606Y-23804D01*
X49606Y-23804D02*
X49606Y-23204D01*
X49606Y-23204D02*
X49206Y-23204D01*
X53504Y-23076D02*
X53503Y-23085D01*
X53500Y-23095D01*
X53495Y-23103D01*
X53489Y-23111D01*
X53481Y-23117D01*
X53473Y-23122D01*
X53464Y-23124D01*
X53454Y-23125D01*
X53445Y-23125D01*
X53436Y-23122D01*
X53427Y-23117D01*
X53420Y-23111D01*
X53413Y-23104D01*
X53409Y-23095D01*
X53406Y-23086D01*
X53405Y-23076D01*
X53405Y-23067D01*
X53408Y-23058D01*
X53412Y-23049D01*
X53419Y-23042D01*
X53426Y-23035D01*
X53434Y-23031D01*
X53444Y-23028D01*
X53453Y-23027D01*
X53462Y-23027D01*
X53472Y-23030D01*
X53480Y-23034D01*
X53488Y-23040D01*
X53494Y-23048D01*
X53499Y-23056D01*
X53502Y-23065D01*
X53503Y-23075D01*
X53504Y-23076D01*
X53904Y-23076D02*
X53504Y-23076D01*
X53504Y-23076D02*
X53504Y-23676D01*
X53504Y-23676D02*
X53904Y-23676D01*
X54304Y-23676D02*
X54704Y-23676D01*
X54704Y-23676D02*
X54704Y-23076D01*
X54704Y-23076D02*
X54304Y-23076D01*
X47983Y-29404D02*
X47982Y-29413D01*
X47979Y-29423D01*
X47974Y-29431D01*
X47968Y-29439D01*
X47960Y-29445D01*
X47952Y-29450D01*
X47943Y-29452D01*
X47933Y-29453D01*
X47924Y-29453D01*
X47915Y-29450D01*
X47906Y-29445D01*
X47899Y-29439D01*
X47892Y-29432D01*
X47888Y-29423D01*
X47885Y-29414D01*
X47884Y-29404D01*
X47884Y-29395D01*
X47887Y-29386D01*
X47891Y-29377D01*
X47898Y-29370D01*
X47905Y-29363D01*
X47913Y-29359D01*
X47923Y-29356D01*
X47932Y-29355D01*
X47941Y-29355D01*
X47951Y-29358D01*
X47959Y-29362D01*
X47967Y-29368D01*
X47973Y-29376D01*
X47978Y-29384D01*
X47981Y-29393D01*
X47982Y-29403D01*
X47983Y-29404D01*
X47483Y-29404D02*
X47883Y-29404D01*
X47883Y-29404D02*
X47883Y-28804D01*
X47883Y-28804D02*
X47483Y-28804D01*
X47083Y-28804D02*
X46683Y-28804D01*
X46683Y-28804D02*
X46683Y-29404D01*
X46683Y-29404D02*
X47083Y-29404D01*
X60680Y-27476D02*
X60679Y-27485D01*
X60676Y-27495D01*
X60671Y-27503D01*
X60665Y-27511D01*
X60657Y-27517D01*
X60649Y-27522D01*
X60640Y-27524D01*
X60630Y-27525D01*
X60621Y-27525D01*
X60612Y-27522D01*
X60603Y-27517D01*
X60596Y-27511D01*
X60589Y-27504D01*
X60585Y-27495D01*
X60582Y-27486D01*
X60581Y-27476D01*
X60581Y-27467D01*
X60584Y-27458D01*
X60588Y-27449D01*
X60595Y-27442D01*
X60602Y-27435D01*
X60610Y-27431D01*
X60620Y-27428D01*
X60629Y-27427D01*
X60638Y-27427D01*
X60648Y-27430D01*
X60656Y-27434D01*
X60664Y-27440D01*
X60670Y-27448D01*
X60675Y-27456D01*
X60678Y-27465D01*
X60679Y-27475D01*
X60680Y-27476D01*
X61080Y-27476D02*
X60680Y-27476D01*
X60680Y-27476D02*
X60680Y-28076D01*
X60680Y-28076D02*
X61080Y-28076D01*
X61480Y-28076D02*
X61880Y-28076D01*
X61880Y-28076D02*
X61880Y-27476D01*
X61880Y-27476D02*
X61480Y-27476D01*
X60591Y-30330D02*
X60590Y-30339D01*
X60587Y-30349D01*
X60582Y-30357D01*
X60576Y-30365D01*
X60568Y-30371D01*
X60560Y-30376D01*
X60551Y-30378D01*
X60541Y-30379D01*
X60532Y-30379D01*
X60523Y-30376D01*
X60514Y-30371D01*
X60507Y-30365D01*
X60500Y-30358D01*
X60496Y-30349D01*
X60493Y-30340D01*
X60492Y-30330D01*
X60492Y-30321D01*
X60495Y-30312D01*
X60499Y-30303D01*
X60506Y-30296D01*
X60513Y-30289D01*
X60521Y-30285D01*
X60531Y-30282D01*
X60540Y-30281D01*
X60549Y-30281D01*
X60559Y-30284D01*
X60567Y-30288D01*
X60575Y-30294D01*
X60581Y-30302D01*
X60586Y-30310D01*
X60589Y-30319D01*
X60590Y-30329D01*
X60591Y-30330D01*
X60991Y-30330D02*
X60591Y-30330D01*
X60591Y-30330D02*
X60591Y-30930D01*
X60591Y-30930D02*
X60991Y-30930D01*
X61391Y-30930D02*
X61791Y-30930D01*
X61791Y-30930D02*
X61791Y-30330D01*
X61791Y-30330D02*
X61391Y-30330D01*
X49651Y-31742D02*
X49650Y-31751D01*
X49647Y-31761D01*
X49642Y-31769D01*
X49636Y-31777D01*
X49628Y-31783D01*
X49620Y-31788D01*
X49611Y-31790D01*
X49601Y-31791D01*
X49592Y-31791D01*
X49583Y-31788D01*
X49574Y-31783D01*
X49567Y-31777D01*
X49560Y-31770D01*
X49556Y-31761D01*
X49553Y-31752D01*
X49552Y-31742D01*
X49552Y-31733D01*
X49555Y-31724D01*
X49559Y-31715D01*
X49566Y-31708D01*
X49573Y-31701D01*
X49581Y-31697D01*
X49591Y-31694D01*
X49600Y-31693D01*
X49609Y-31693D01*
X49619Y-31696D01*
X49627Y-31700D01*
X49635Y-31706D01*
X49641Y-31714D01*
X49646Y-31722D01*
X49649Y-31731D01*
X49650Y-31741D01*
X49651Y-31742D01*
X49601Y-32192D02*
X49601Y-31792D01*
X49601Y-31792D02*
X49001Y-31792D01*
X49001Y-31792D02*
X49001Y-32192D01*
X49001Y-32592D02*
X49001Y-32992D01*
X49001Y-32992D02*
X49601Y-32992D01*
X49601Y-32992D02*
X49601Y-32592D01*
X54651Y-31742D02*
X54650Y-31751D01*
X54647Y-31761D01*
X54642Y-31769D01*
X54636Y-31777D01*
X54628Y-31783D01*
X54620Y-31788D01*
X54611Y-31790D01*
X54601Y-31791D01*
X54592Y-31791D01*
X54583Y-31788D01*
X54574Y-31783D01*
X54567Y-31777D01*
X54560Y-31770D01*
X54556Y-31761D01*
X54553Y-31752D01*
X54552Y-31742D01*
X54552Y-31733D01*
X54555Y-31724D01*
X54559Y-31715D01*
X54566Y-31708D01*
X54573Y-31701D01*
X54581Y-31697D01*
X54591Y-31694D01*
X54600Y-31693D01*
X54609Y-31693D01*
X54619Y-31696D01*
X54627Y-31700D01*
X54635Y-31706D01*
X54641Y-31714D01*
X54646Y-31722D01*
X54649Y-31731D01*
X54650Y-31741D01*
X54651Y-31742D01*
X54601Y-32192D02*
X54601Y-31792D01*
X54601Y-31792D02*
X54001Y-31792D01*
X54001Y-31792D02*
X54001Y-32192D01*
X54001Y-32592D02*
X54001Y-32992D01*
X54001Y-32992D02*
X54601Y-32992D01*
X54601Y-32992D02*
X54601Y-32592D01*
X50655Y-31742D02*
X50654Y-31751D01*
X50651Y-31761D01*
X50646Y-31769D01*
X50640Y-31777D01*
X50632Y-31783D01*
X50624Y-31788D01*
X50615Y-31790D01*
X50605Y-31791D01*
X50596Y-31791D01*
X50587Y-31788D01*
X50578Y-31783D01*
X50571Y-31777D01*
X50564Y-31770D01*
X50560Y-31761D01*
X50557Y-31752D01*
X50556Y-31742D01*
X50556Y-31733D01*
X50559Y-31724D01*
X50563Y-31715D01*
X50570Y-31708D01*
X50577Y-31701D01*
X50585Y-31697D01*
X50595Y-31694D01*
X50604Y-31693D01*
X50613Y-31693D01*
X50623Y-31696D01*
X50631Y-31700D01*
X50639Y-31706D01*
X50645Y-31714D01*
X50650Y-31722D01*
X50653Y-31731D01*
X50654Y-31741D01*
X50655Y-31742D01*
X50605Y-32192D02*
X50605Y-31792D01*
X50605Y-31792D02*
X50005Y-31792D01*
X50005Y-31792D02*
X50005Y-32192D01*
X50005Y-32592D02*
X50005Y-32992D01*
X50005Y-32992D02*
X50605Y-32992D01*
X50605Y-32992D02*
X50605Y-32592D01*
X51649Y-31742D02*
X51648Y-31751D01*
X51645Y-31761D01*
X51640Y-31769D01*
X51634Y-31777D01*
X51626Y-31783D01*
X51618Y-31788D01*
X51609Y-31790D01*
X51599Y-31791D01*
X51590Y-31791D01*
X51581Y-31788D01*
X51572Y-31783D01*
X51565Y-31777D01*
X51558Y-31770D01*
X51554Y-31761D01*
X51551Y-31752D01*
X51550Y-31742D01*
X51550Y-31733D01*
X51553Y-31724D01*
X51557Y-31715D01*
X51564Y-31708D01*
X51571Y-31701D01*
X51579Y-31697D01*
X51589Y-31694D01*
X51598Y-31693D01*
X51607Y-31693D01*
X51617Y-31696D01*
X51625Y-31700D01*
X51633Y-31706D01*
X51639Y-31714D01*
X51644Y-31722D01*
X51647Y-31731D01*
X51648Y-31741D01*
X51649Y-31742D01*
X51599Y-32192D02*
X51599Y-31792D01*
X51599Y-31792D02*
X50999Y-31792D01*
X50999Y-31792D02*
X50999Y-32192D01*
X50999Y-32592D02*
X50999Y-32992D01*
X50999Y-32992D02*
X51599Y-32992D01*
X51599Y-32992D02*
X51599Y-32592D01*
X52653Y-31742D02*
X52652Y-31751D01*
X52649Y-31761D01*
X52644Y-31769D01*
X52638Y-31777D01*
X52630Y-31783D01*
X52622Y-31788D01*
X52613Y-31790D01*
X52603Y-31791D01*
X52594Y-31791D01*
X52585Y-31788D01*
X52576Y-31783D01*
X52569Y-31777D01*
X52562Y-31770D01*
X52558Y-31761D01*
X52555Y-31752D01*
X52554Y-31742D01*
X52554Y-31733D01*
X52557Y-31724D01*
X52561Y-31715D01*
X52568Y-31708D01*
X52575Y-31701D01*
X52583Y-31697D01*
X52593Y-31694D01*
X52602Y-31693D01*
X52611Y-31693D01*
X52621Y-31696D01*
X52629Y-31700D01*
X52637Y-31706D01*
X52643Y-31714D01*
X52648Y-31722D01*
X52651Y-31731D01*
X52652Y-31741D01*
X52653Y-31742D01*
X52603Y-32192D02*
X52603Y-31792D01*
X52603Y-31792D02*
X52003Y-31792D01*
X52003Y-31792D02*
X52003Y-32192D01*
X52003Y-32592D02*
X52003Y-32992D01*
X52003Y-32992D02*
X52603Y-32992D01*
X52603Y-32992D02*
X52603Y-32592D01*
X53647Y-31742D02*
X53646Y-31751D01*
X53643Y-31761D01*
X53638Y-31769D01*
X53632Y-31777D01*
X53624Y-31783D01*
X53616Y-31788D01*
X53607Y-31790D01*
X53597Y-31791D01*
X53588Y-31791D01*
X53579Y-31788D01*
X53570Y-31783D01*
X53563Y-31777D01*
X53556Y-31770D01*
X53552Y-31761D01*
X53549Y-31752D01*
X53548Y-31742D01*
X53548Y-31733D01*
X53551Y-31724D01*
X53555Y-31715D01*
X53562Y-31708D01*
X53569Y-31701D01*
X53577Y-31697D01*
X53587Y-31694D01*
X53596Y-31693D01*
X53605Y-31693D01*
X53615Y-31696D01*
X53623Y-31700D01*
X53631Y-31706D01*
X53637Y-31714D01*
X53642Y-31722D01*
X53645Y-31731D01*
X53646Y-31741D01*
X53647Y-31742D01*
X53597Y-32192D02*
X53597Y-31792D01*
X53597Y-31792D02*
X52997Y-31792D01*
X52997Y-31792D02*
X52997Y-32192D01*
X52997Y-32592D02*
X52997Y-32992D01*
X52997Y-32992D02*
X53597Y-32992D01*
X53597Y-32992D02*
X53597Y-32592D01*
X47840Y-26279D02*
X47839Y-26288D01*
X47836Y-26298D01*
X47831Y-26306D01*
X47825Y-26314D01*
X47817Y-26320D01*
X47809Y-26325D01*
X47800Y-26327D01*
X47790Y-26328D01*
X47781Y-26328D01*
X47772Y-26325D01*
X47763Y-26320D01*
X47756Y-26314D01*
X47749Y-26307D01*
X47745Y-26298D01*
X47742Y-26289D01*
X47741Y-26279D01*
X47741Y-26270D01*
X47744Y-26261D01*
X47748Y-26252D01*
X47755Y-26245D01*
X47762Y-26238D01*
X47770Y-26234D01*
X47780Y-26231D01*
X47789Y-26230D01*
X47798Y-26230D01*
X47808Y-26233D01*
X47816Y-26237D01*
X47824Y-26243D01*
X47830Y-26251D01*
X47835Y-26259D01*
X47838Y-26268D01*
X47839Y-26278D01*
X47840Y-26279D01*
X47790Y-26729D02*
X47790Y-26329D01*
X47790Y-26329D02*
X47190Y-26329D01*
X47190Y-26329D02*
X47190Y-26729D01*
X47190Y-27129D02*
X47190Y-27529D01*
X47190Y-27529D02*
X47790Y-27529D01*
X47790Y-27529D02*
X47790Y-27129D01*
X60660Y-28804D02*
X60659Y-28813D01*
X60656Y-28823D01*
X60651Y-28831D01*
X60645Y-28839D01*
X60637Y-28845D01*
X60629Y-28850D01*
X60620Y-28852D01*
X60610Y-28853D01*
X60601Y-28853D01*
X60592Y-28850D01*
X60583Y-28845D01*
X60576Y-28839D01*
X60569Y-28832D01*
X60565Y-28823D01*
X60562Y-28814D01*
X60561Y-28804D01*
X60561Y-28795D01*
X60564Y-28786D01*
X60568Y-28777D01*
X60575Y-28770D01*
X60582Y-28763D01*
X60590Y-28759D01*
X60600Y-28756D01*
X60609Y-28755D01*
X60618Y-28755D01*
X60628Y-28758D01*
X60636Y-28762D01*
X60644Y-28768D01*
X60650Y-28776D01*
X60655Y-28784D01*
X60658Y-28793D01*
X60659Y-28803D01*
X60660Y-28804D01*
X61060Y-28804D02*
X60660Y-28804D01*
X60660Y-28804D02*
X60660Y-29404D01*
X60660Y-29404D02*
X61060Y-29404D01*
X61460Y-29404D02*
X61860Y-29404D01*
X61860Y-29404D02*
X61860Y-28804D01*
X61860Y-28804D02*
X61460Y-28804D01*
X59651Y-31742D02*
X59650Y-31751D01*
X59647Y-31761D01*
X59642Y-31769D01*
X59636Y-31777D01*
X59628Y-31783D01*
X59620Y-31788D01*
X59611Y-31790D01*
X59601Y-31791D01*
X59592Y-31791D01*
X59583Y-31788D01*
X59574Y-31783D01*
X59567Y-31777D01*
X59560Y-31770D01*
X59556Y-31761D01*
X59553Y-31752D01*
X59552Y-31742D01*
X59552Y-31733D01*
X59555Y-31724D01*
X59559Y-31715D01*
X59566Y-31708D01*
X59573Y-31701D01*
X59581Y-31697D01*
X59591Y-31694D01*
X59600Y-31693D01*
X59609Y-31693D01*
X59619Y-31696D01*
X59627Y-31700D01*
X59635Y-31706D01*
X59641Y-31714D01*
X59646Y-31722D01*
X59649Y-31731D01*
X59650Y-31741D01*
X59651Y-31742D01*
X59601Y-32192D02*
X59601Y-31792D01*
X59601Y-31792D02*
X59001Y-31792D01*
X59001Y-31792D02*
X59001Y-32192D01*
X59001Y-32592D02*
X59001Y-32992D01*
X59001Y-32992D02*
X59601Y-32992D01*
X59601Y-32992D02*
X59601Y-32592D01*
X58647Y-31742D02*
X58646Y-31751D01*
X58643Y-31761D01*
X58638Y-31769D01*
X58632Y-31777D01*
X58624Y-31783D01*
X58616Y-31788D01*
X58607Y-31790D01*
X58597Y-31791D01*
X58588Y-31791D01*
X58579Y-31788D01*
X58570Y-31783D01*
X58563Y-31777D01*
X58556Y-31770D01*
X58552Y-31761D01*
X58549Y-31752D01*
X58548Y-31742D01*
X58548Y-31733D01*
X58551Y-31724D01*
X58555Y-31715D01*
X58562Y-31708D01*
X58569Y-31701D01*
X58577Y-31697D01*
X58587Y-31694D01*
X58596Y-31693D01*
X58605Y-31693D01*
X58615Y-31696D01*
X58623Y-31700D01*
X58631Y-31706D01*
X58637Y-31714D01*
X58642Y-31722D01*
X58645Y-31731D01*
X58646Y-31741D01*
X58647Y-31742D01*
X58597Y-32192D02*
X58597Y-31792D01*
X58597Y-31792D02*
X57997Y-31792D01*
X57997Y-31792D02*
X57997Y-32192D01*
X57997Y-32592D02*
X57997Y-32992D01*
X57997Y-32992D02*
X58597Y-32992D01*
X58597Y-32992D02*
X58597Y-32592D01*
X57653Y-31742D02*
X57652Y-31751D01*
X57649Y-31761D01*
X57644Y-31769D01*
X57638Y-31777D01*
X57630Y-31783D01*
X57622Y-31788D01*
X57613Y-31790D01*
X57603Y-31791D01*
X57594Y-31791D01*
X57585Y-31788D01*
X57576Y-31783D01*
X57569Y-31777D01*
X57562Y-31770D01*
X57558Y-31761D01*
X57555Y-31752D01*
X57554Y-31742D01*
X57554Y-31733D01*
X57557Y-31724D01*
X57561Y-31715D01*
X57568Y-31708D01*
X57575Y-31701D01*
X57583Y-31697D01*
X57593Y-31694D01*
X57602Y-31693D01*
X57611Y-31693D01*
X57621Y-31696D01*
X57629Y-31700D01*
X57637Y-31706D01*
X57643Y-31714D01*
X57648Y-31722D01*
X57651Y-31731D01*
X57652Y-31741D01*
X57653Y-31742D01*
X57603Y-32192D02*
X57603Y-31792D01*
X57603Y-31792D02*
X57003Y-31792D01*
X57003Y-31792D02*
X57003Y-32192D01*
X57003Y-32592D02*
X57003Y-32992D01*
X57003Y-32992D02*
X57603Y-32992D01*
X57603Y-32992D02*
X57603Y-32592D01*
X56639Y-31742D02*
X56638Y-31751D01*
X56635Y-31761D01*
X56630Y-31769D01*
X56624Y-31777D01*
X56616Y-31783D01*
X56608Y-31788D01*
X56599Y-31790D01*
X56589Y-31791D01*
X56580Y-31791D01*
X56571Y-31788D01*
X56562Y-31783D01*
X56555Y-31777D01*
X56548Y-31770D01*
X56544Y-31761D01*
X56541Y-31752D01*
X56540Y-31742D01*
X56540Y-31733D01*
X56543Y-31724D01*
X56547Y-31715D01*
X56554Y-31708D01*
X56561Y-31701D01*
X56569Y-31697D01*
X56579Y-31694D01*
X56588Y-31693D01*
X56597Y-31693D01*
X56607Y-31696D01*
X56615Y-31700D01*
X56623Y-31706D01*
X56629Y-31714D01*
X56634Y-31722D01*
X56637Y-31731D01*
X56638Y-31741D01*
X56639Y-31742D01*
X56589Y-32192D02*
X56589Y-31792D01*
X56589Y-31792D02*
X55989Y-31792D01*
X55989Y-31792D02*
X55989Y-32192D01*
X55989Y-32592D02*
X55989Y-32992D01*
X55989Y-32992D02*
X56589Y-32992D01*
X56589Y-32992D02*
X56589Y-32592D01*
X55655Y-31742D02*
X55654Y-31751D01*
X55651Y-31761D01*
X55646Y-31769D01*
X55640Y-31777D01*
X55632Y-31783D01*
X55624Y-31788D01*
X55615Y-31790D01*
X55605Y-31791D01*
X55596Y-31791D01*
X55587Y-31788D01*
X55578Y-31783D01*
X55571Y-31777D01*
X55564Y-31770D01*
X55560Y-31761D01*
X55557Y-31752D01*
X55556Y-31742D01*
X55556Y-31733D01*
X55559Y-31724D01*
X55563Y-31715D01*
X55570Y-31708D01*
X55577Y-31701D01*
X55585Y-31697D01*
X55595Y-31694D01*
X55604Y-31693D01*
X55613Y-31693D01*
X55623Y-31696D01*
X55631Y-31700D01*
X55639Y-31706D01*
X55645Y-31714D01*
X55650Y-31722D01*
X55653Y-31731D01*
X55654Y-31741D01*
X55655Y-31742D01*
X55605Y-32192D02*
X55605Y-31792D01*
X55605Y-31792D02*
X55005Y-31792D01*
X55005Y-31792D02*
X55005Y-32192D01*
X55005Y-32592D02*
X55005Y-32992D01*
X55005Y-32992D02*
X55605Y-32992D01*
X55605Y-32992D02*
X55605Y-32592D01*
X56586Y-24335D02*
X56585Y-24344D01*
X56582Y-24354D01*
X56577Y-24362D01*
X56571Y-24370D01*
X56563Y-24376D01*
X56555Y-24381D01*
X56546Y-24383D01*
X56536Y-24384D01*
X56527Y-24384D01*
X56518Y-24381D01*
X56509Y-24376D01*
X56502Y-24370D01*
X56495Y-24363D01*
X56491Y-24354D01*
X56488Y-24345D01*
X56487Y-24335D01*
X56487Y-24326D01*
X56490Y-24317D01*
X56494Y-24308D01*
X56501Y-24301D01*
X56508Y-24294D01*
X56516Y-24290D01*
X56526Y-24287D01*
X56535Y-24286D01*
X56544Y-24286D01*
X56554Y-24289D01*
X56562Y-24293D01*
X56570Y-24299D01*
X56576Y-24307D01*
X56581Y-24315D01*
X56584Y-24324D01*
X56585Y-24334D01*
X56586Y-24335D01*
X56086Y-24335D02*
X56486Y-24335D01*
X56486Y-24335D02*
X56486Y-23735D01*
X56486Y-23735D02*
X56086Y-23735D01*
X55686Y-23735D02*
X55286Y-23735D01*
X55286Y-23735D02*
X55286Y-24335D01*
X55286Y-24335D02*
X55686Y-24335D01*
X53023Y-21688D02*
X53022Y-21697D01*
X53019Y-21707D01*
X53014Y-21715D01*
X53008Y-21723D01*
X53000Y-21729D01*
X52992Y-21734D01*
X52983Y-21736D01*
X52973Y-21737D01*
X52964Y-21737D01*
X52955Y-21734D01*
X52946Y-21729D01*
X52939Y-21723D01*
X52932Y-21716D01*
X52928Y-21707D01*
X52925Y-21698D01*
X52924Y-21688D01*
X52924Y-21679D01*
X52927Y-21670D01*
X52931Y-21661D01*
X52938Y-21654D01*
X52945Y-21647D01*
X52953Y-21643D01*
X52963Y-21640D01*
X52972Y-21639D01*
X52981Y-21639D01*
X52991Y-21642D01*
X52999Y-21646D01*
X53007Y-21652D01*
X53013Y-21660D01*
X53018Y-21668D01*
X53021Y-21677D01*
X53022Y-21687D01*
X53023Y-21688D01*
X52523Y-21688D02*
X52923Y-21688D01*
X52923Y-21688D02*
X52923Y-21088D01*
X52923Y-21088D02*
X52523Y-21088D01*
X52123Y-21088D02*
X51723Y-21088D01*
X51723Y-21088D02*
X51723Y-21688D01*
X51723Y-21688D02*
X52123Y-21688D01*
X50100Y-25800D02*
X50099Y-25809D01*
X50096Y-25819D01*
X50091Y-25827D01*
X50085Y-25835D01*
X50077Y-25841D01*
X50069Y-25846D01*
X50060Y-25848D01*
X50050Y-25849D01*
X50041Y-25849D01*
X50032Y-25846D01*
X50023Y-25841D01*
X50016Y-25835D01*
X50009Y-25828D01*
X50005Y-25819D01*
X50002Y-25810D01*
X50001Y-25800D01*
X50001Y-25791D01*
X50004Y-25782D01*
X50008Y-25773D01*
X50015Y-25766D01*
X50022Y-25759D01*
X50030Y-25755D01*
X50040Y-25752D01*
X50049Y-25751D01*
X50058Y-25751D01*
X50068Y-25754D01*
X50076Y-25758D01*
X50084Y-25764D01*
X50090Y-25772D01*
X50095Y-25780D01*
X50098Y-25789D01*
X50099Y-25799D01*
X50100Y-25800D01*
X50500Y-25800D02*
X50100Y-25800D01*
X50100Y-25800D02*
X50100Y-26400D01*
X50100Y-26400D02*
X50500Y-26400D01*
X50900Y-26400D02*
X51300Y-26400D01*
X51300Y-26400D02*
X51300Y-25800D01*
X51300Y-25800D02*
X50900Y-25800D01*
X49500Y-26800D02*
X49499Y-26809D01*
X49496Y-26819D01*
X49491Y-26827D01*
X49485Y-26835D01*
X49477Y-26841D01*
X49469Y-26846D01*
X49460Y-26848D01*
X49450Y-26849D01*
X49441Y-26849D01*
X49432Y-26846D01*
X49423Y-26841D01*
X49416Y-26835D01*
X49409Y-26828D01*
X49405Y-26819D01*
X49402Y-26810D01*
X49401Y-26800D01*
X49401Y-26791D01*
X49404Y-26782D01*
X49408Y-26773D01*
X49415Y-26766D01*
X49422Y-26759D01*
X49430Y-26755D01*
X49440Y-26752D01*
X49449Y-26751D01*
X49458Y-26751D01*
X49468Y-26754D01*
X49476Y-26758D01*
X49484Y-26764D01*
X49490Y-26772D01*
X49495Y-26780D01*
X49498Y-26789D01*
X49499Y-26799D01*
X49500Y-26800D01*
X49900Y-26800D02*
X49500Y-26800D01*
X49500Y-26800D02*
X49500Y-27400D01*
X49500Y-27400D02*
X49900Y-27400D01*
X50300Y-27400D02*
X50700Y-27400D01*
X50700Y-27400D02*
X50700Y-26800D01*
X50700Y-26800D02*
X50300Y-26800D01*
G54D11*
X54714Y-28202D02*
X54714Y-28526D01*
X54695Y-28564D01*
X54676Y-28583D01*
X54638Y-28602D01*
X54561Y-28602D01*
X54523Y-28583D01*
X54504Y-28564D01*
X54485Y-28526D01*
X54485Y-28202D01*
X54314Y-28240D02*
X54295Y-28221D01*
X54257Y-28202D01*
X54161Y-28202D01*
X54123Y-28221D01*
X54104Y-28240D01*
X54085Y-28278D01*
X54085Y-28316D01*
X54104Y-28373D01*
X54333Y-28602D01*
X54085Y-28602D01*
X55275Y-28002D02*
X55466Y-28002D01*
X55466Y-27602D01*
X55142Y-28002D02*
X55142Y-27602D01*
X55008Y-27888D01*
X54875Y-27602D01*
X54875Y-28002D01*
X54723Y-27602D02*
X54475Y-27602D01*
X54609Y-27754D01*
X54551Y-27754D01*
X54513Y-27773D01*
X54494Y-27792D01*
X54475Y-27830D01*
X54475Y-27926D01*
X54494Y-27964D01*
X54513Y-27983D01*
X54551Y-28002D01*
X54666Y-28002D01*
X54704Y-27983D01*
X54723Y-27964D01*
X54285Y-28002D02*
X54209Y-28002D01*
X54170Y-27983D01*
X54151Y-27964D01*
X54113Y-27907D01*
X54094Y-27830D01*
X54094Y-27678D01*
X54113Y-27640D01*
X54132Y-27621D01*
X54170Y-27602D01*
X54247Y-27602D01*
X54285Y-27621D01*
X54304Y-27640D01*
X54323Y-27678D01*
X54323Y-27773D01*
X54304Y-27811D01*
X54285Y-27830D01*
X54247Y-27850D01*
X54170Y-27850D01*
X54132Y-27830D01*
X54113Y-27811D01*
X54094Y-27773D01*
X53751Y-27735D02*
X53751Y-28002D01*
X53847Y-27583D02*
X53942Y-27869D01*
X53694Y-27869D01*
X53466Y-27602D02*
X53427Y-27602D01*
X53389Y-27621D01*
X53370Y-27640D01*
X53351Y-27678D01*
X53332Y-27754D01*
X53332Y-27850D01*
X53351Y-27926D01*
X53370Y-27964D01*
X53389Y-27983D01*
X53427Y-28002D01*
X53466Y-28002D01*
X53504Y-27983D01*
X53523Y-27964D01*
X53542Y-27926D01*
X53561Y-27850D01*
X53561Y-27754D01*
X53542Y-27678D01*
X53523Y-27640D01*
X53504Y-27621D01*
X53466Y-27602D01*
G54D17*
X50013Y-25562D02*
X50013Y-25062D01*
X49894Y-25062D01*
X49822Y-25086D01*
X49775Y-25134D01*
X49751Y-25181D01*
X49727Y-25277D01*
X49727Y-25348D01*
X49751Y-25443D01*
X49775Y-25491D01*
X49822Y-25539D01*
X49894Y-25562D01*
X50013Y-25562D01*
X49537Y-25110D02*
X49513Y-25086D01*
X49465Y-25062D01*
X49346Y-25062D01*
X49299Y-25086D01*
X49275Y-25110D01*
X49251Y-25158D01*
X49251Y-25205D01*
X49275Y-25277D01*
X49561Y-25562D01*
X49251Y-25562D01*
X50043Y-23879D02*
X50043Y-23682D01*
X49951Y-23823D01*
X49859Y-23682D01*
X49859Y-23879D01*
X49636Y-23776D02*
X49597Y-23785D01*
X49584Y-23795D01*
X49571Y-23814D01*
X49571Y-23842D01*
X49584Y-23860D01*
X49597Y-23870D01*
X49623Y-23879D01*
X49728Y-23879D01*
X49728Y-23682D01*
X49636Y-23682D01*
X49610Y-23692D01*
X49597Y-23701D01*
X49584Y-23720D01*
X49584Y-23739D01*
X49597Y-23757D01*
X49610Y-23767D01*
X49636Y-23776D01*
X49728Y-23776D01*
X49295Y-23879D02*
X49387Y-23785D01*
X49452Y-23879D02*
X49452Y-23682D01*
X49347Y-23682D01*
X49321Y-23692D01*
X49308Y-23701D01*
X49295Y-23720D01*
X49295Y-23748D01*
X49308Y-23767D01*
X49321Y-23776D01*
X49347Y-23785D01*
X49452Y-23785D01*
X49124Y-23682D02*
X49097Y-23682D01*
X49071Y-23692D01*
X49058Y-23701D01*
X49045Y-23720D01*
X49032Y-23757D01*
X49032Y-23804D01*
X49045Y-23842D01*
X49058Y-23860D01*
X49071Y-23870D01*
X49097Y-23879D01*
X49124Y-23879D01*
X49150Y-23870D01*
X49163Y-23860D01*
X49176Y-23842D01*
X49189Y-23804D01*
X49189Y-23757D01*
X49176Y-23720D01*
X49163Y-23701D01*
X49150Y-23692D01*
X49124Y-23682D01*
X48782Y-23682D02*
X48913Y-23682D01*
X48926Y-23776D01*
X48913Y-23767D01*
X48887Y-23757D01*
X48821Y-23757D01*
X48795Y-23767D01*
X48782Y-23776D01*
X48769Y-23795D01*
X48769Y-23842D01*
X48782Y-23860D01*
X48795Y-23870D01*
X48821Y-23879D01*
X48887Y-23879D01*
X48913Y-23870D01*
X48926Y-23860D01*
X48532Y-23748D02*
X48532Y-23879D01*
X48598Y-23673D02*
X48663Y-23814D01*
X48493Y-23814D01*
X48335Y-23682D02*
X48308Y-23682D01*
X48282Y-23692D01*
X48269Y-23701D01*
X48256Y-23720D01*
X48243Y-23757D01*
X48243Y-23804D01*
X48256Y-23842D01*
X48269Y-23860D01*
X48282Y-23870D01*
X48308Y-23879D01*
X48335Y-23879D01*
X48361Y-23870D01*
X48374Y-23860D01*
X48387Y-23842D01*
X48400Y-23804D01*
X48400Y-23757D01*
X48387Y-23720D01*
X48374Y-23701D01*
X48361Y-23692D01*
X48335Y-23682D01*
X50531Y-22887D02*
X50031Y-22887D01*
X50031Y-23006D01*
X50055Y-23078D01*
X50103Y-23125D01*
X50150Y-23149D01*
X50246Y-23173D01*
X50317Y-23173D01*
X50412Y-23149D01*
X50460Y-23125D01*
X50508Y-23078D01*
X50531Y-23006D01*
X50531Y-22887D01*
X50531Y-23649D02*
X50531Y-23363D01*
X50531Y-23506D02*
X50031Y-23506D01*
X50103Y-23458D01*
X50150Y-23411D01*
X50174Y-23363D01*
X52079Y-21907D02*
X51882Y-21907D01*
X52023Y-21999D01*
X51882Y-22091D01*
X52079Y-22091D01*
X51976Y-22314D02*
X51985Y-22353D01*
X51995Y-22366D01*
X52014Y-22379D01*
X52042Y-22379D01*
X52060Y-22366D01*
X52070Y-22353D01*
X52079Y-22327D01*
X52079Y-22222D01*
X51882Y-22222D01*
X51882Y-22314D01*
X51892Y-22340D01*
X51901Y-22353D01*
X51920Y-22366D01*
X51939Y-22366D01*
X51957Y-22353D01*
X51967Y-22340D01*
X51976Y-22314D01*
X51976Y-22222D01*
X52079Y-22655D02*
X51985Y-22563D01*
X52079Y-22498D02*
X51882Y-22498D01*
X51882Y-22603D01*
X51892Y-22629D01*
X51901Y-22642D01*
X51920Y-22655D01*
X51948Y-22655D01*
X51967Y-22642D01*
X51976Y-22629D01*
X51985Y-22603D01*
X51985Y-22498D01*
X51882Y-22826D02*
X51882Y-22853D01*
X51892Y-22879D01*
X51901Y-22892D01*
X51920Y-22905D01*
X51957Y-22918D01*
X52004Y-22918D01*
X52042Y-22905D01*
X52060Y-22892D01*
X52070Y-22879D01*
X52079Y-22853D01*
X52079Y-22826D01*
X52070Y-22800D01*
X52060Y-22787D01*
X52042Y-22774D01*
X52004Y-22761D01*
X51957Y-22761D01*
X51920Y-22774D01*
X51901Y-22787D01*
X51892Y-22800D01*
X51882Y-22826D01*
X51882Y-23168D02*
X51882Y-23037D01*
X51976Y-23024D01*
X51967Y-23037D01*
X51957Y-23063D01*
X51957Y-23129D01*
X51967Y-23155D01*
X51976Y-23168D01*
X51995Y-23181D01*
X52042Y-23181D01*
X52060Y-23168D01*
X52070Y-23155D01*
X52079Y-23129D01*
X52079Y-23063D01*
X52070Y-23037D01*
X52060Y-23024D01*
X51948Y-23418D02*
X52079Y-23418D01*
X51873Y-23352D02*
X52014Y-23287D01*
X52014Y-23457D01*
X51882Y-23615D02*
X51882Y-23642D01*
X51892Y-23668D01*
X51901Y-23681D01*
X51920Y-23694D01*
X51957Y-23707D01*
X52004Y-23707D01*
X52042Y-23694D01*
X52060Y-23681D01*
X52070Y-23668D01*
X52079Y-23642D01*
X52079Y-23615D01*
X52070Y-23589D01*
X52060Y-23576D01*
X52042Y-23563D01*
X52004Y-23550D01*
X51957Y-23550D01*
X51920Y-23563D01*
X51901Y-23576D01*
X51892Y-23589D01*
X51882Y-23615D01*
G54D18*
X55945Y-25412D02*
X55974Y-25440D01*
X56060Y-25469D01*
X56117Y-25469D01*
X56202Y-25440D01*
X56260Y-25383D01*
X56288Y-25326D01*
X56317Y-25212D01*
X56317Y-25126D01*
X56288Y-25012D01*
X56260Y-24955D01*
X56202Y-24897D01*
X56117Y-24869D01*
X56060Y-24869D01*
X55974Y-24897D01*
X55945Y-24926D01*
X55745Y-24869D02*
X55345Y-24869D01*
X55602Y-25469D01*
X55960Y-25412D02*
X55989Y-25440D01*
X56075Y-25469D01*
X56132Y-25469D01*
X56217Y-25440D01*
X56275Y-25383D01*
X56303Y-25326D01*
X56332Y-25212D01*
X56332Y-25126D01*
X56303Y-25012D01*
X56275Y-24955D01*
X56217Y-24897D01*
X56132Y-24869D01*
X56075Y-24869D01*
X55989Y-24897D01*
X55960Y-24926D01*
X55703Y-25469D02*
X55703Y-24869D01*
X55475Y-24869D01*
X55417Y-24897D01*
X55389Y-24926D01*
X55360Y-24983D01*
X55360Y-25069D01*
X55389Y-25126D01*
X55417Y-25155D01*
X55475Y-25183D01*
X55703Y-25183D01*
X52707Y-25412D02*
X52736Y-25440D01*
X52822Y-25469D01*
X52879Y-25469D01*
X52964Y-25440D01*
X53022Y-25383D01*
X53050Y-25326D01*
X53079Y-25212D01*
X53079Y-25126D01*
X53050Y-25012D01*
X53022Y-24955D01*
X52964Y-24897D01*
X52879Y-24869D01*
X52822Y-24869D01*
X52736Y-24897D01*
X52707Y-24926D01*
X52164Y-24869D02*
X52450Y-24869D01*
X52479Y-25155D01*
X52450Y-25126D01*
X52393Y-25097D01*
X52250Y-25097D01*
X52193Y-25126D01*
X52164Y-25155D01*
X52136Y-25212D01*
X52136Y-25355D01*
X52164Y-25412D01*
X52193Y-25440D01*
X52250Y-25469D01*
X52393Y-25469D01*
X52450Y-25440D01*
X52479Y-25412D01*
X52722Y-25412D02*
X52751Y-25440D01*
X52837Y-25469D01*
X52894Y-25469D01*
X52979Y-25440D01*
X53037Y-25383D01*
X53065Y-25326D01*
X53094Y-25212D01*
X53094Y-25126D01*
X53065Y-25012D01*
X53037Y-24955D01*
X52979Y-24897D01*
X52894Y-24869D01*
X52837Y-24869D01*
X52751Y-24897D01*
X52722Y-24926D01*
X52465Y-25469D02*
X52465Y-24869D01*
X52237Y-24869D01*
X52179Y-24897D01*
X52151Y-24926D01*
X52122Y-24983D01*
X52122Y-25069D01*
X52151Y-25126D01*
X52179Y-25155D01*
X52237Y-25183D01*
X52465Y-25183D01*
G54D16*
X58300Y-23290D02*
X58383Y-23171D01*
X58442Y-23290D02*
X58442Y-23040D01*
X58347Y-23040D01*
X58323Y-23052D01*
X58312Y-23064D01*
X58300Y-23088D01*
X58300Y-23124D01*
X58312Y-23147D01*
X58323Y-23159D01*
X58347Y-23171D01*
X58442Y-23171D01*
X58073Y-23040D02*
X58192Y-23040D01*
X58204Y-23159D01*
X58192Y-23147D01*
X58169Y-23135D01*
X58109Y-23135D01*
X58085Y-23147D01*
X58073Y-23159D01*
X58062Y-23183D01*
X58062Y-23243D01*
X58073Y-23266D01*
X58085Y-23278D01*
X58109Y-23290D01*
X58169Y-23290D01*
X58192Y-23278D01*
X58204Y-23266D01*
X49048Y-23605D02*
X49131Y-23486D01*
X49190Y-23605D02*
X49190Y-23355D01*
X49095Y-23355D01*
X49071Y-23367D01*
X49060Y-23379D01*
X49048Y-23403D01*
X49048Y-23439D01*
X49060Y-23462D01*
X49071Y-23474D01*
X49095Y-23486D01*
X49190Y-23486D01*
X48833Y-23439D02*
X48833Y-23605D01*
X48893Y-23343D02*
X48952Y-23522D01*
X48798Y-23522D01*
X54146Y-23477D02*
X54229Y-23358D01*
X54288Y-23477D02*
X54288Y-23227D01*
X54193Y-23227D01*
X54169Y-23239D01*
X54158Y-23251D01*
X54146Y-23275D01*
X54146Y-23311D01*
X54158Y-23334D01*
X54169Y-23346D01*
X54193Y-23358D01*
X54288Y-23358D01*
X54062Y-23227D02*
X53908Y-23227D01*
X53991Y-23322D01*
X53955Y-23322D01*
X53931Y-23334D01*
X53919Y-23346D01*
X53908Y-23370D01*
X53908Y-23430D01*
X53919Y-23453D01*
X53931Y-23465D01*
X53955Y-23477D01*
X54027Y-23477D01*
X54050Y-23465D01*
X54062Y-23453D01*
X47444Y-29181D02*
X47456Y-29193D01*
X47491Y-29205D01*
X47515Y-29205D01*
X47551Y-29193D01*
X47575Y-29169D01*
X47586Y-29146D01*
X47598Y-29098D01*
X47598Y-29062D01*
X47586Y-29015D01*
X47575Y-28991D01*
X47551Y-28967D01*
X47515Y-28955D01*
X47491Y-28955D01*
X47456Y-28967D01*
X47444Y-28979D01*
X47348Y-28979D02*
X47336Y-28967D01*
X47313Y-28955D01*
X47253Y-28955D01*
X47229Y-28967D01*
X47217Y-28979D01*
X47206Y-29003D01*
X47206Y-29027D01*
X47217Y-29062D01*
X47360Y-29205D01*
X47206Y-29205D01*
X47122Y-28955D02*
X46968Y-28955D01*
X47051Y-29050D01*
X47015Y-29050D01*
X46991Y-29062D01*
X46979Y-29074D01*
X46968Y-29098D01*
X46968Y-29158D01*
X46979Y-29181D01*
X46991Y-29193D01*
X47015Y-29205D01*
X47087Y-29205D01*
X47110Y-29193D01*
X47122Y-29181D01*
X61441Y-27853D02*
X61453Y-27865D01*
X61488Y-27877D01*
X61512Y-27877D01*
X61548Y-27865D01*
X61572Y-27841D01*
X61583Y-27818D01*
X61595Y-27770D01*
X61595Y-27734D01*
X61583Y-27687D01*
X61572Y-27663D01*
X61548Y-27639D01*
X61512Y-27627D01*
X61488Y-27627D01*
X61453Y-27639D01*
X61441Y-27651D01*
X61345Y-27651D02*
X61333Y-27639D01*
X61310Y-27627D01*
X61250Y-27627D01*
X61226Y-27639D01*
X61214Y-27651D01*
X61203Y-27675D01*
X61203Y-27699D01*
X61214Y-27734D01*
X61357Y-27877D01*
X61203Y-27877D01*
X61107Y-27651D02*
X61095Y-27639D01*
X61072Y-27627D01*
X61012Y-27627D01*
X60988Y-27639D01*
X60976Y-27651D01*
X60965Y-27675D01*
X60965Y-27699D01*
X60976Y-27734D01*
X61119Y-27877D01*
X60965Y-27877D01*
X61352Y-30707D02*
X61364Y-30719D01*
X61399Y-30731D01*
X61423Y-30731D01*
X61459Y-30719D01*
X61483Y-30695D01*
X61494Y-30672D01*
X61506Y-30624D01*
X61506Y-30588D01*
X61494Y-30541D01*
X61483Y-30517D01*
X61459Y-30493D01*
X61423Y-30481D01*
X61399Y-30481D01*
X61364Y-30493D01*
X61352Y-30505D01*
X61256Y-30505D02*
X61244Y-30493D01*
X61221Y-30481D01*
X61161Y-30481D01*
X61137Y-30493D01*
X61125Y-30505D01*
X61114Y-30529D01*
X61114Y-30553D01*
X61125Y-30588D01*
X61268Y-30731D01*
X61114Y-30731D01*
X60876Y-30731D02*
X61018Y-30731D01*
X60947Y-30731D02*
X60947Y-30481D01*
X60971Y-30517D01*
X60995Y-30541D01*
X61018Y-30553D01*
X49378Y-32231D02*
X49390Y-32219D01*
X49402Y-32184D01*
X49402Y-32160D01*
X49390Y-32124D01*
X49366Y-32100D01*
X49343Y-32089D01*
X49295Y-32077D01*
X49259Y-32077D01*
X49212Y-32089D01*
X49188Y-32100D01*
X49164Y-32124D01*
X49152Y-32160D01*
X49152Y-32184D01*
X49164Y-32219D01*
X49176Y-32231D01*
X49176Y-32327D02*
X49164Y-32339D01*
X49152Y-32362D01*
X49152Y-32422D01*
X49164Y-32446D01*
X49176Y-32458D01*
X49200Y-32469D01*
X49224Y-32469D01*
X49259Y-32458D01*
X49402Y-32315D01*
X49402Y-32469D01*
X49152Y-32624D02*
X49152Y-32648D01*
X49164Y-32672D01*
X49176Y-32684D01*
X49200Y-32696D01*
X49247Y-32707D01*
X49307Y-32707D01*
X49355Y-32696D01*
X49378Y-32684D01*
X49390Y-32672D01*
X49402Y-32648D01*
X49402Y-32624D01*
X49390Y-32600D01*
X49378Y-32588D01*
X49355Y-32577D01*
X49307Y-32565D01*
X49247Y-32565D01*
X49200Y-32577D01*
X49176Y-32588D01*
X49164Y-32600D01*
X49152Y-32624D01*
X54378Y-32231D02*
X54390Y-32219D01*
X54402Y-32184D01*
X54402Y-32160D01*
X54390Y-32124D01*
X54366Y-32100D01*
X54343Y-32089D01*
X54295Y-32077D01*
X54259Y-32077D01*
X54212Y-32089D01*
X54188Y-32100D01*
X54164Y-32124D01*
X54152Y-32160D01*
X54152Y-32184D01*
X54164Y-32219D01*
X54176Y-32231D01*
X54402Y-32469D02*
X54402Y-32327D01*
X54402Y-32398D02*
X54152Y-32398D01*
X54188Y-32374D01*
X54212Y-32350D01*
X54224Y-32327D01*
X54402Y-32588D02*
X54402Y-32636D01*
X54390Y-32660D01*
X54378Y-32672D01*
X54343Y-32696D01*
X54295Y-32707D01*
X54200Y-32707D01*
X54176Y-32696D01*
X54164Y-32684D01*
X54152Y-32660D01*
X54152Y-32612D01*
X54164Y-32588D01*
X54176Y-32577D01*
X54200Y-32565D01*
X54259Y-32565D01*
X54283Y-32577D01*
X54295Y-32588D01*
X54307Y-32612D01*
X54307Y-32660D01*
X54295Y-32684D01*
X54283Y-32696D01*
X54259Y-32707D01*
X50382Y-32231D02*
X50394Y-32219D01*
X50406Y-32184D01*
X50406Y-32160D01*
X50394Y-32124D01*
X50370Y-32100D01*
X50347Y-32089D01*
X50299Y-32077D01*
X50263Y-32077D01*
X50216Y-32089D01*
X50192Y-32100D01*
X50168Y-32124D01*
X50156Y-32160D01*
X50156Y-32184D01*
X50168Y-32219D01*
X50180Y-32231D01*
X50406Y-32469D02*
X50406Y-32327D01*
X50406Y-32398D02*
X50156Y-32398D01*
X50192Y-32374D01*
X50216Y-32350D01*
X50228Y-32327D01*
X50263Y-32612D02*
X50251Y-32588D01*
X50240Y-32577D01*
X50216Y-32565D01*
X50204Y-32565D01*
X50180Y-32577D01*
X50168Y-32588D01*
X50156Y-32612D01*
X50156Y-32660D01*
X50168Y-32684D01*
X50180Y-32696D01*
X50204Y-32707D01*
X50216Y-32707D01*
X50240Y-32696D01*
X50251Y-32684D01*
X50263Y-32660D01*
X50263Y-32612D01*
X50275Y-32588D01*
X50287Y-32577D01*
X50311Y-32565D01*
X50359Y-32565D01*
X50382Y-32577D01*
X50394Y-32588D01*
X50406Y-32612D01*
X50406Y-32660D01*
X50394Y-32684D01*
X50382Y-32696D01*
X50359Y-32707D01*
X50311Y-32707D01*
X50287Y-32696D01*
X50275Y-32684D01*
X50263Y-32660D01*
X51376Y-32231D02*
X51388Y-32219D01*
X51400Y-32184D01*
X51400Y-32160D01*
X51388Y-32124D01*
X51364Y-32100D01*
X51341Y-32089D01*
X51293Y-32077D01*
X51257Y-32077D01*
X51210Y-32089D01*
X51186Y-32100D01*
X51162Y-32124D01*
X51150Y-32160D01*
X51150Y-32184D01*
X51162Y-32219D01*
X51174Y-32231D01*
X51400Y-32469D02*
X51400Y-32327D01*
X51400Y-32398D02*
X51150Y-32398D01*
X51186Y-32374D01*
X51210Y-32350D01*
X51222Y-32327D01*
X51150Y-32553D02*
X51150Y-32719D01*
X51400Y-32612D01*
X52380Y-32231D02*
X52392Y-32219D01*
X52404Y-32184D01*
X52404Y-32160D01*
X52392Y-32124D01*
X52368Y-32100D01*
X52345Y-32089D01*
X52297Y-32077D01*
X52261Y-32077D01*
X52214Y-32089D01*
X52190Y-32100D01*
X52166Y-32124D01*
X52154Y-32160D01*
X52154Y-32184D01*
X52166Y-32219D01*
X52178Y-32231D01*
X52404Y-32469D02*
X52404Y-32327D01*
X52404Y-32398D02*
X52154Y-32398D01*
X52190Y-32374D01*
X52214Y-32350D01*
X52226Y-32327D01*
X52154Y-32684D02*
X52154Y-32636D01*
X52166Y-32612D01*
X52178Y-32600D01*
X52214Y-32577D01*
X52261Y-32565D01*
X52357Y-32565D01*
X52380Y-32577D01*
X52392Y-32588D01*
X52404Y-32612D01*
X52404Y-32660D01*
X52392Y-32684D01*
X52380Y-32696D01*
X52357Y-32707D01*
X52297Y-32707D01*
X52273Y-32696D01*
X52261Y-32684D01*
X52249Y-32660D01*
X52249Y-32612D01*
X52261Y-32588D01*
X52273Y-32577D01*
X52297Y-32565D01*
X53374Y-32231D02*
X53386Y-32219D01*
X53398Y-32184D01*
X53398Y-32160D01*
X53386Y-32124D01*
X53362Y-32100D01*
X53339Y-32089D01*
X53291Y-32077D01*
X53255Y-32077D01*
X53208Y-32089D01*
X53184Y-32100D01*
X53160Y-32124D01*
X53148Y-32160D01*
X53148Y-32184D01*
X53160Y-32219D01*
X53172Y-32231D01*
X53398Y-32469D02*
X53398Y-32327D01*
X53398Y-32398D02*
X53148Y-32398D01*
X53184Y-32374D01*
X53208Y-32350D01*
X53220Y-32327D01*
X53148Y-32696D02*
X53148Y-32577D01*
X53267Y-32565D01*
X53255Y-32577D01*
X53243Y-32600D01*
X53243Y-32660D01*
X53255Y-32684D01*
X53267Y-32696D01*
X53291Y-32707D01*
X53351Y-32707D01*
X53374Y-32696D01*
X53386Y-32684D01*
X53398Y-32660D01*
X53398Y-32600D01*
X53386Y-32577D01*
X53374Y-32565D01*
X47567Y-26768D02*
X47579Y-26756D01*
X47591Y-26721D01*
X47591Y-26697D01*
X47579Y-26661D01*
X47555Y-26637D01*
X47532Y-26626D01*
X47484Y-26614D01*
X47448Y-26614D01*
X47401Y-26626D01*
X47377Y-26637D01*
X47353Y-26661D01*
X47341Y-26697D01*
X47341Y-26721D01*
X47353Y-26756D01*
X47365Y-26768D01*
X47591Y-27006D02*
X47591Y-26864D01*
X47591Y-26935D02*
X47341Y-26935D01*
X47377Y-26911D01*
X47401Y-26887D01*
X47413Y-26864D01*
X47425Y-27221D02*
X47591Y-27221D01*
X47329Y-27161D02*
X47508Y-27102D01*
X47508Y-27256D01*
X61421Y-29181D02*
X61433Y-29193D01*
X61468Y-29205D01*
X61492Y-29205D01*
X61528Y-29193D01*
X61552Y-29169D01*
X61563Y-29146D01*
X61575Y-29098D01*
X61575Y-29062D01*
X61563Y-29015D01*
X61552Y-28991D01*
X61528Y-28967D01*
X61492Y-28955D01*
X61468Y-28955D01*
X61433Y-28967D01*
X61421Y-28979D01*
X61183Y-29205D02*
X61325Y-29205D01*
X61254Y-29205D02*
X61254Y-28955D01*
X61278Y-28991D01*
X61302Y-29015D01*
X61325Y-29027D01*
X61099Y-28955D02*
X60945Y-28955D01*
X61028Y-29050D01*
X60992Y-29050D01*
X60968Y-29062D01*
X60956Y-29074D01*
X60945Y-29098D01*
X60945Y-29158D01*
X60956Y-29181D01*
X60968Y-29193D01*
X60992Y-29205D01*
X61064Y-29205D01*
X61087Y-29193D01*
X61099Y-29181D01*
X59378Y-32231D02*
X59390Y-32219D01*
X59402Y-32184D01*
X59402Y-32160D01*
X59390Y-32124D01*
X59366Y-32100D01*
X59343Y-32089D01*
X59295Y-32077D01*
X59259Y-32077D01*
X59212Y-32089D01*
X59188Y-32100D01*
X59164Y-32124D01*
X59152Y-32160D01*
X59152Y-32184D01*
X59164Y-32219D01*
X59176Y-32231D01*
X59402Y-32469D02*
X59402Y-32327D01*
X59402Y-32398D02*
X59152Y-32398D01*
X59188Y-32374D01*
X59212Y-32350D01*
X59224Y-32327D01*
X59176Y-32565D02*
X59164Y-32577D01*
X59152Y-32600D01*
X59152Y-32660D01*
X59164Y-32684D01*
X59176Y-32696D01*
X59200Y-32707D01*
X59224Y-32707D01*
X59259Y-32696D01*
X59402Y-32553D01*
X59402Y-32707D01*
X58374Y-32231D02*
X58386Y-32219D01*
X58398Y-32184D01*
X58398Y-32160D01*
X58386Y-32124D01*
X58362Y-32100D01*
X58339Y-32089D01*
X58291Y-32077D01*
X58255Y-32077D01*
X58208Y-32089D01*
X58184Y-32100D01*
X58160Y-32124D01*
X58148Y-32160D01*
X58148Y-32184D01*
X58160Y-32219D01*
X58172Y-32231D01*
X58398Y-32469D02*
X58398Y-32327D01*
X58398Y-32398D02*
X58148Y-32398D01*
X58184Y-32374D01*
X58208Y-32350D01*
X58220Y-32327D01*
X58398Y-32707D02*
X58398Y-32565D01*
X58398Y-32636D02*
X58148Y-32636D01*
X58184Y-32612D01*
X58208Y-32588D01*
X58220Y-32565D01*
X57380Y-32231D02*
X57392Y-32219D01*
X57404Y-32184D01*
X57404Y-32160D01*
X57392Y-32124D01*
X57368Y-32100D01*
X57345Y-32089D01*
X57297Y-32077D01*
X57261Y-32077D01*
X57214Y-32089D01*
X57190Y-32100D01*
X57166Y-32124D01*
X57154Y-32160D01*
X57154Y-32184D01*
X57166Y-32219D01*
X57178Y-32231D01*
X57404Y-32469D02*
X57404Y-32327D01*
X57404Y-32398D02*
X57154Y-32398D01*
X57190Y-32374D01*
X57214Y-32350D01*
X57226Y-32327D01*
X57154Y-32624D02*
X57154Y-32648D01*
X57166Y-32672D01*
X57178Y-32684D01*
X57202Y-32696D01*
X57249Y-32707D01*
X57309Y-32707D01*
X57357Y-32696D01*
X57380Y-32684D01*
X57392Y-32672D01*
X57404Y-32648D01*
X57404Y-32624D01*
X57392Y-32600D01*
X57380Y-32588D01*
X57357Y-32577D01*
X57309Y-32565D01*
X57249Y-32565D01*
X57202Y-32577D01*
X57178Y-32588D01*
X57166Y-32600D01*
X57154Y-32624D01*
X56366Y-32350D02*
X56378Y-32338D01*
X56390Y-32303D01*
X56390Y-32279D01*
X56378Y-32243D01*
X56354Y-32219D01*
X56331Y-32208D01*
X56283Y-32196D01*
X56247Y-32196D01*
X56200Y-32208D01*
X56176Y-32219D01*
X56152Y-32243D01*
X56140Y-32279D01*
X56140Y-32303D01*
X56152Y-32338D01*
X56164Y-32350D01*
X56390Y-32469D02*
X56390Y-32517D01*
X56378Y-32541D01*
X56366Y-32553D01*
X56331Y-32577D01*
X56283Y-32588D01*
X56188Y-32588D01*
X56164Y-32577D01*
X56152Y-32565D01*
X56140Y-32541D01*
X56140Y-32493D01*
X56152Y-32469D01*
X56164Y-32458D01*
X56188Y-32446D01*
X56247Y-32446D01*
X56271Y-32458D01*
X56283Y-32469D01*
X56295Y-32493D01*
X56295Y-32541D01*
X56283Y-32565D01*
X56271Y-32577D01*
X56247Y-32588D01*
X55382Y-32350D02*
X55394Y-32338D01*
X55406Y-32303D01*
X55406Y-32279D01*
X55394Y-32243D01*
X55370Y-32219D01*
X55347Y-32208D01*
X55299Y-32196D01*
X55263Y-32196D01*
X55216Y-32208D01*
X55192Y-32219D01*
X55168Y-32243D01*
X55156Y-32279D01*
X55156Y-32303D01*
X55168Y-32338D01*
X55180Y-32350D01*
X55263Y-32493D02*
X55251Y-32469D01*
X55240Y-32458D01*
X55216Y-32446D01*
X55204Y-32446D01*
X55180Y-32458D01*
X55168Y-32469D01*
X55156Y-32493D01*
X55156Y-32541D01*
X55168Y-32565D01*
X55180Y-32577D01*
X55204Y-32588D01*
X55216Y-32588D01*
X55240Y-32577D01*
X55251Y-32565D01*
X55263Y-32541D01*
X55263Y-32493D01*
X55275Y-32469D01*
X55287Y-32458D01*
X55311Y-32446D01*
X55359Y-32446D01*
X55382Y-32458D01*
X55394Y-32469D01*
X55406Y-32493D01*
X55406Y-32541D01*
X55394Y-32565D01*
X55382Y-32577D01*
X55359Y-32588D01*
X55311Y-32588D01*
X55287Y-32577D01*
X55275Y-32565D01*
X55263Y-32541D01*
X55928Y-24112D02*
X55940Y-24124D01*
X55975Y-24136D01*
X55999Y-24136D01*
X56035Y-24124D01*
X56059Y-24100D01*
X56070Y-24077D01*
X56082Y-24029D01*
X56082Y-23993D01*
X56070Y-23946D01*
X56059Y-23922D01*
X56035Y-23898D01*
X55999Y-23886D01*
X55975Y-23886D01*
X55940Y-23898D01*
X55928Y-23910D01*
X55713Y-23886D02*
X55761Y-23886D01*
X55785Y-23898D01*
X55797Y-23910D01*
X55820Y-23946D01*
X55832Y-23993D01*
X55832Y-24089D01*
X55820Y-24112D01*
X55809Y-24124D01*
X55785Y-24136D01*
X55737Y-24136D01*
X55713Y-24124D01*
X55701Y-24112D01*
X55690Y-24089D01*
X55690Y-24029D01*
X55701Y-24005D01*
X55713Y-23993D01*
X55737Y-23981D01*
X55785Y-23981D01*
X55809Y-23993D01*
X55820Y-24005D01*
X55832Y-24029D01*
X52365Y-21465D02*
X52377Y-21477D01*
X52412Y-21489D01*
X52436Y-21489D01*
X52472Y-21477D01*
X52496Y-21453D01*
X52507Y-21430D01*
X52519Y-21382D01*
X52519Y-21346D01*
X52507Y-21299D01*
X52496Y-21275D01*
X52472Y-21251D01*
X52436Y-21239D01*
X52412Y-21239D01*
X52377Y-21251D01*
X52365Y-21263D01*
X52281Y-21239D02*
X52127Y-21239D01*
X52210Y-21334D01*
X52174Y-21334D01*
X52150Y-21346D01*
X52138Y-21358D01*
X52127Y-21382D01*
X52127Y-21442D01*
X52138Y-21465D01*
X52150Y-21477D01*
X52174Y-21489D01*
X52246Y-21489D01*
X52269Y-21477D01*
X52281Y-21465D01*
X50742Y-26177D02*
X50754Y-26189D01*
X50789Y-26201D01*
X50813Y-26201D01*
X50849Y-26189D01*
X50873Y-26165D01*
X50884Y-26142D01*
X50896Y-26094D01*
X50896Y-26058D01*
X50884Y-26011D01*
X50873Y-25987D01*
X50849Y-25963D01*
X50813Y-25951D01*
X50789Y-25951D01*
X50754Y-25963D01*
X50742Y-25975D01*
X50646Y-25975D02*
X50634Y-25963D01*
X50611Y-25951D01*
X50551Y-25951D01*
X50527Y-25963D01*
X50515Y-25975D01*
X50504Y-25999D01*
X50504Y-26023D01*
X50515Y-26058D01*
X50658Y-26201D01*
X50504Y-26201D01*
X50142Y-27177D02*
X50154Y-27189D01*
X50189Y-27201D01*
X50213Y-27201D01*
X50249Y-27189D01*
X50273Y-27165D01*
X50284Y-27142D01*
X50296Y-27094D01*
X50296Y-27058D01*
X50284Y-27011D01*
X50273Y-26987D01*
X50249Y-26963D01*
X50213Y-26951D01*
X50189Y-26951D01*
X50154Y-26963D01*
X50142Y-26975D01*
X49904Y-27201D02*
X50046Y-27201D01*
X49975Y-27201D02*
X49975Y-26951D01*
X49999Y-26987D01*
X50023Y-27011D01*
X50046Y-27023D01*
M02*
